<svg id="visual" viewBox="0 0 1920 1080" width="1920" height="1080" xmlns="http://www.w3.org/2000/svg" xmlns:xlink="http://www.w3.org/1999/xlink" version="1.1"><rect x="0" y="0" width="1920" height="1080" fill="#379237"></rect><defs><linearGradient id="grad1_0" x1="43.8%" y1="0%" x2="100%" y2="100%"><stop offset="14.444444444444446%" stop-color="#d1e20c" stop-opacity="1"></stop><stop offset="85.55555555555554%" stop-color="#d1e20c" stop-opacity="1"></stop></linearGradient></defs><defs><linearGradient id="grad1_1" x1="43.8%" y1="0%" x2="100%" y2="100%"><stop offset="14.444444444444446%" stop-color="#d1e20c" stop-opacity="1"></stop><stop offset="85.55555555555554%" stop-color="#379237" stop-opacity="1"></stop></linearGradient></defs><defs><linearGradient id="grad2_0" x1="0%" y1="0%" x2="56.3%" y2="100%"><stop offset="14.444444444444446%" stop-color="#d1e20c" stop-opacity="1"></stop><stop offset="85.55555555555554%" stop-color="#d1e20c" stop-opacity="1"></stop></linearGradient></defs><defs><linearGradient id="grad2_1" x1="0%" y1="0%" x2="56.3%" y2="100%"><stop offset="14.444444444444446%" stop-color="#379237" stop-opacity="1"></stop><stop offset="85.55555555555554%" stop-color="#d1e20c" stop-opacity="1"></stop></linearGradient></defs><g transform="translate(1920, 0)"><path d="M0 864C-98.9 868.4 -197.8 872.7 -267 821.7C-336.2 770.7 -375.7 664.3 -436.1 600.3C-496.5 536.3 -577.8 514.8 -639.1 464.4C-700.5 413.9 -741.9 334.4 -776.1 252.2C-810.2 169.9 -837.1 85 -864 0L0 0Z" fill="#7fbc2b"></path><path d="M0 432C-49.4 434.2 -98.9 436.4 -133.5 410.9C-168.1 385.3 -187.9 332.1 -218.1 300.1C-248.3 268.2 -288.9 257.4 -319.6 232.2C-350.2 206.9 -371 167.2 -388 126.1C-405.1 85 -418.6 42.5 -432 0L0 0Z" fill="#d1e20c"></path></g><g transform="translate(0, 1080)"><path d="M0 -864C95.9 -863.1 191.8 -862.2 267 -821.7C342.2 -781.3 396.6 -701.3 470.8 -648C545 -594.7 639 -568.1 698.2 -507.3C757.4 -446.4 781.8 -351.4 803.6 -261.1C825.5 -170.9 844.7 -85.4 864 0L0 0Z" fill="#7fbc2b"></path><path d="M0 -432C48 -431.5 95.9 -431.1 133.5 -410.9C171.1 -390.6 198.3 -350.7 235.4 -324C272.5 -297.4 319.5 -284 349.1 -253.6C378.7 -223.2 390.9 -175.7 401.8 -130.6C412.7 -85.4 422.4 -42.7 432 0L0 0Z" fill="#d1e20c"></path></g></svg>